<svg width="40" height="40" viewBox="0 0 40 40" fill="none" xmlns="http://www.w3.org/2000/svg">
<g clip-path="url(#clip0_13720_42163)">
<mask id="mask0_13720_42163" style="mask-type:luminance" maskUnits="userSpaceOnUse" x="0" y="0" width="40" height="40">
<path d="M40 0H0V40H40V0Z" fill="white"/>
</mask>
<g mask="url(#mask0_13720_42163)">
<path fill-rule="evenodd" clip-rule="evenodd" d="M15.1098 35.7572L15.1098 35.7574L12.5828 33.2304C12.5942 33.3854 12.6 33.542 12.6 33.7C12.6 37.1794 9.7794 40 6.3 40C2.8206 40 0 37.1794 0 33.7C0 30.2206 2.8206 27.4 6.3 27.4C6.45798 27.4 6.6146 27.4058 6.76966 27.4172L4.17254 24.8202L4.17308 24.8196C1.59169 22.1862 0 18.5789 0 14.6C0 6.53664 6.53664 0 14.6 0C18.5789 0 22.1862 1.59169 24.8196 4.17308L24.82 4.1726L24.8982 4.25064C24.9152 4.26768 24.9324 4.28478 24.9494 4.3019L27.4172 6.7698C27.4058 6.6147 27.4 6.45802 27.4 6.3C27.4 2.8206 30.2206 0 33.7 0C37.1794 0 40 2.8206 40 6.3C40 9.7794 37.1794 12.6 33.7 12.6C33.542 12.6 33.3854 12.5942 33.2302 12.5827L35.6984 15.0509C35.7154 15.0678 35.7322 15.0847 35.749 15.1016L35.7572 15.1098C38.3796 17.7492 40 21.3854 40 25.4C40 33.4634 33.4634 40 25.4 40C21.3854 40 17.7492 38.3796 15.1098 35.7572Z" fill="black"/>
</g>
</g>
<defs>
<clipPath id="clip0_13720_42163">
<rect width="40" height="40" fill="white"/>
</clipPath>
</defs>
</svg>
