<svg width="40" height="40" viewBox="0 0 40 40" fill="none" xmlns="http://www.w3.org/2000/svg">
<g clip-path="url(#clip0_13720_42164)">
<mask id="mask0_13720_42164" style="mask-type:luminance" maskUnits="userSpaceOnUse" x="0" y="0" width="40" height="40">
<path d="M40 0H0V40H40V0Z" fill="white"/>
</mask>
<g mask="url(#mask0_13720_42164)">
<path fill-rule="evenodd" clip-rule="evenodd" d="M10 0H0V20H10C4.47716 20 0 24.4772 0 30V40H20V30C20 35.5228 24.4772 40 30 40H40V20H30C35.5228 20 40 15.5228 40 10V0H20V10C20 4.47716 15.5228 0 10 0ZM20 20H10C15.5228 20 20 24.4772 20 30V20ZM20 20V10C20 15.5228 24.4772 20 30 20H20Z" fill="black"/>
</g>
</g>
<defs>
<clipPath id="clip0_13720_42164">
<rect width="40" height="40" fill="white"/>
</clipPath>
</defs>
</svg>
